<svg xmlns="http://www.w3.org/2000/svg" viewBox="0 0 32 32" width="32" height="32">
  <rect width="32" height="32" rx="7" fill="#3D2817"/>
  <g fill="none" stroke="#9B8FAA" stroke-width="1.8" stroke-linecap="round" stroke-linejoin="round">
    <circle cx="16" cy="16" r="3.2" fill="#C9A96E" stroke="none"/>
    <path d="M16 12.8c0-3 1.4-5 1.4-5s1.4 2 1.4 5"/>
    <path d="M16 12.8c0-3-1.4-5-1.4-5S13.2 9.8 13.2 12.8"/>
    <path d="M19.2 16c3 0 5-1.4 5-1.4s-2-1.4-5-1.4"/>
    <path d="M12.8 16c-3 0-5-1.4-5-1.4s2-1.4 5-1.4"/>
    <path d="M16 19.2c0 3 1.4 5 1.4 5s1.4-2 1.4-5"/>
    <path d="M16 19.2c0 3-1.4 5-1.4 5S13.2 22.2 13.2 19.2"/>
  </g>
</svg>
